<?xml version="1.0" standalone="no"?>
<!DOCTYPE svg PUBLIC "-//W3C//DTD SVG 20010904//EN"
 "http://www.w3.org/TR/2001/REC-SVG-20010904/DTD/svg10.dtd">
<svg version="1.0" xmlns="http://www.w3.org/2000/svg"
 width="100.000000pt" height="100.000000pt" viewBox="0 0 100.000000 100.000000"
 preserveAspectRatio="xMidYMid meet">

<g transform="translate(0.000000,100.000000) scale(0.100000,-0.100000)"
fill="#000000" stroke="none">
<path d="M485 810 c3 -5 12 -10 20 -10 8 0 16 -4 19 -9 4 -5 -31 -115 -75
-245 -91 -261 -112 -296 -176 -296 -52 0 -92 26 -113 73 l-19 42 0 -31 c-1
-38 33 -91 78 -121 40 -27 126 -31 169 -9 55 28 72 62 156 302 79 227 85 239
109 239 51 0 35 12 -55 43 -97 34 -123 39 -113 22z"/>
<path d="M180 626 l-155 -62 0 -44 0 -44 115 -46 c63 -25 134 -54 158 -63 l42
-17 0 44 0 44 -100 38 c-55 21 -100 42 -100 45 0 4 39 21 88 38 115 42 114 41
110 89 l-3 40 -155 -62z"/>
</g>
</svg>
